<svg width="116" height="55" viewBox="0 0 116 55" fill="none" xmlns="http://www.w3.org/2000/svg">
<g clip-path="url(#clip0_2155_192)">
<path d="M20.2152 6.83419L17.5676 9.37032C16.8353 8.56434 15.9346 7.91825 14.9252 7.47487C13.9157 7.0315 12.8204 6.80095 11.712 6.79847C10.8109 6.7734 9.91388 6.92644 9.07576 7.24824C8.23763 7.57004 7.47604 8.05386 6.83728 8.67021C6.19961 9.25382 5.69506 9.96017 5.35595 10.7439C5.01684 11.5276 4.85075 12.3714 4.86821 13.221C4.85368 14.0961 5.02714 14.9646 5.37752 15.7714C5.72791 16.5781 6.24763 17.3055 6.90363 17.9074C7.5696 18.5375 8.35894 19.0322 9.22536 19.3623C10.0917 19.6923 11.0174 19.8511 11.948 19.8292C13.0967 19.8649 14.233 19.5903 15.2298 19.0362C16.1861 18.4357 16.9359 17.5726 17.3833 16.5572H11.6678V13.1424H21.5943V13.9425C21.5892 15.6155 21.126 17.2573 20.2521 18.7004C19.4304 20.1253 18.2282 21.3098 16.7712 22.1296C15.2418 22.9455 13.5166 23.3547 11.7711 23.3154C9.85946 23.3462 7.97202 22.8983 6.29154 22.0153C4.6941 21.1561 3.37614 19.8819 2.48609 18.3361C1.55646 16.767 1.07295 14.9872 1.08487 13.1781C1.05116 10.737 1.97655 8.37478 3.67352 6.56985C4.67025 5.48028 5.90278 4.61703 7.28328 4.04161C8.66379 3.46618 10.1583 3.19273 11.6604 3.24074C13.3165 3.22383 14.9583 3.53754 16.4836 4.16232C17.9085 4.78736 19.1803 5.69801 20.2152 6.83419Z" fill="url(#paint0_linear_2155_192)"/>
<path d="M37.9153 16.7785H26.1156C26.2479 17.7131 26.7311 18.5676 27.4726 19.1789C28.2738 19.794 29.2757 20.1108 30.2972 20.0719C30.9512 20.0807 31.6004 19.9619 32.206 19.7225C32.8116 19.4832 33.3613 19.1283 33.8224 18.6788L36.9124 20.1076C36.2125 21.1068 35.2606 21.9158 34.1469 22.4581C32.9486 22.986 31.6427 23.2448 30.3267 23.2154C29.2958 23.2533 28.2677 23.0872 27.3052 22.7274C26.3429 22.3675 25.4663 21.8213 24.7292 21.1221C24.0186 20.433 23.4612 19.6105 23.0909 18.7051C22.7205 17.7997 22.5452 16.8304 22.5757 15.857C22.5451 14.8692 22.7193 13.8854 23.0879 12.9639C23.4565 12.0424 24.012 11.2018 24.7218 10.4918C25.4206 9.79164 26.262 9.23962 27.1925 8.87071C28.123 8.50179 29.1224 8.32402 30.1275 8.34862C31.1639 8.31189 32.1969 8.48334 33.1614 8.85219C34.126 9.22103 35.0014 9.77929 35.7324 10.4918C36.4626 11.2453 37.0294 12.133 37.3993 13.1024C37.7692 14.0718 37.9346 15.1032 37.8859 16.1356L37.9153 16.7785ZM34.2279 13.9853C33.9906 13.2057 33.486 12.5278 32.7972 12.0635C32.0704 11.5769 31.2026 11.3267 30.3193 11.349C29.3543 11.3293 28.4101 11.6208 27.6348 12.1778C27.0362 12.6687 26.5746 13.2977 26.2926 14.0066L34.2279 13.9853Z" fill="url(#paint1_linear_2155_192)"/>
<path d="M39.5078 8.69145H43.1951V10.1202C43.867 9.53423 44.6281 9.05228 45.4518 8.69145C46.1092 8.42876 46.8132 8.29287 47.5242 8.29138C48.2101 8.27891 48.8914 8.40313 49.5257 8.65628C50.16 8.90944 50.7338 9.28615 51.2116 9.76305C51.6686 10.2647 52.0169 10.8501 52.236 11.4846C52.4552 12.1189 52.5406 12.7895 52.4875 13.4565V22.7938H48.8296V16.6141C48.8792 15.4873 48.7976 14.3585 48.5862 13.2493C48.4733 12.7483 48.187 12.2997 47.775 11.9777C47.3505 11.6708 46.829 11.5167 46.3 11.5419C45.5936 11.5297 44.9105 11.7862 44.3973 12.2563C43.8296 12.7985 43.4418 13.4925 43.2837 14.2495C43.1473 15.1959 43.0955 16.152 43.1288 17.1071V22.7794H39.4414L39.5078 8.69145Z" fill="url(#paint2_linear_2155_192)"/>
<path d="M55.0176 22.8295V3.71929H58.115C59.4419 3.67118 60.7699 3.78399 62.0679 4.05506C63.1701 4.30801 64.1584 4.89941 64.8852 5.74105C65.5825 6.56023 65.954 7.59424 65.9323 8.65582C65.9453 9.34384 65.7805 10.0241 65.453 10.6347C65.0777 11.2986 64.5504 11.8704 63.9116 12.3064C64.9652 12.7389 65.8741 13.4462 66.5371 14.3496C67.1059 15.2175 67.3959 16.2294 67.3705 17.2572C67.3825 18.2953 67.0855 19.3146 66.515 20.1934C65.9837 21.041 65.217 21.7267 64.3026 22.1723C63.1219 22.6655 61.8403 22.8904 60.5561 22.8295H55.0176ZM58.7714 7.19128V11.2133H59.5974C60.3228 11.2691 61.0448 11.0715 61.6328 10.6561C61.855 10.4673 62.0307 10.2325 62.1468 9.96916C62.263 9.7058 62.3167 9.42057 62.3039 9.13445C62.3163 8.86538 62.2656 8.59711 62.1558 8.34968C62.046 8.10224 61.8798 7.88207 61.6697 7.70565C61.1158 7.30844 60.4315 7.12049 59.7448 7.177L58.7714 7.19128ZM58.7714 14.4639V19.3646H59.7154C61.2715 19.3646 62.326 19.1718 62.8644 18.7932C63.133 18.6035 63.3484 18.352 63.4914 18.0614C63.6343 17.7707 63.7002 17.4501 63.683 17.1286C63.6983 16.7526 63.619 16.3786 63.4521 16.0389C63.285 15.6992 63.0353 15.4038 62.7243 15.1783C61.7725 14.6198 60.6617 14.3696 59.5532 14.4639H58.7714Z" fill="url(#paint3_linear_2155_192)"/>
<path d="M76.0279 8.32716C77.3917 8.32486 78.7317 8.66977 79.9144 9.32732C81.0875 9.97292 82.0621 10.9082 82.7396 12.0376C83.4172 13.1672 83.7728 14.4505 83.7717 15.7569C83.7761 17.0713 83.4194 18.3632 82.7396 19.5004C82.0859 20.6414 81.1189 21.5838 79.9448 22.2222C78.7577 22.8817 77.4112 23.2221 76.0431 23.2081C75.0468 23.2254 74.057 23.044 73.1362 22.6754C72.2151 22.3067 71.3821 21.7585 70.6889 21.065C69.9609 20.3481 69.3894 19.4966 69.0082 18.5614C68.627 17.6261 68.444 16.626 68.4702 15.6207C68.4964 14.6155 68.7311 13.6257 69.1604 12.7102C69.5897 11.7947 70.2048 10.9722 70.9691 10.2918C72.3317 9.03072 74.1437 8.32706 76.0279 8.32716ZM76.0875 11.6705C75.5574 11.6579 75.0305 11.7539 74.5405 11.9521C74.0516 12.1502 73.611 12.4463 73.2479 12.8207C72.867 13.2127 72.5705 13.6742 72.3754 14.1782C72.1805 14.6824 72.091 15.219 72.1122 15.7569C72.0634 16.8589 72.4664 17.9349 73.2332 18.7502C73.5972 19.1251 74.0397 19.4208 74.5297 19.6178C75.0208 19.8149 75.5487 19.9088 76.08 19.8933C76.6123 19.9061 77.1413 19.8103 77.6335 19.6122C78.1246 19.4141 78.568 19.118 78.9344 18.7431C79.6662 17.9167 80.0684 16.8637 80.0684 15.7748C80.0684 14.6858 79.6662 13.6329 78.9344 12.8065C78.5669 12.4355 78.1246 12.1428 77.6346 11.9472C77.1445 11.7515 76.6177 11.6574 76.0875 11.6705Z" fill="url(#paint4_linear_2155_192)"/>
<path d="M96.1755 3.24097H99.8637V22.8299H96.1755V21.3368C95.5565 21.9396 94.8269 22.4244 94.0225 22.7656C93.2809 23.0613 92.4863 23.2096 91.6851 23.2014C90.7593 23.2012 89.8443 23.01 89.0019 22.6404C88.1585 22.2708 87.4061 21.7315 86.7947 21.0582C85.4146 19.6283 84.6731 17.7284 84.7305 15.7716C84.6514 13.7996 85.368 11.8754 86.7286 10.4064C87.3324 9.7397 88.0783 9.20745 88.9152 8.84615C89.7511 8.48484 90.6585 8.30305 91.5745 8.31323C92.4234 8.30921 93.2647 8.47456 94.0441 8.79901C94.8453 9.13497 95.5695 9.62049 96.1755 10.2278V3.24097ZM92.3258 11.6066C91.7979 11.592 91.271 11.6876 90.7842 11.8873C90.2964 12.0871 89.8595 12.386 89.5017 12.764C88.7352 13.5772 88.3298 14.6498 88.3731 15.7502C88.3385 16.8616 88.7515 17.9426 89.5234 18.7649C89.8779 19.1471 90.3126 19.4509 90.7994 19.6556C91.2851 19.8603 91.8109 19.9609 92.341 19.9509C92.8744 19.9641 93.4056 19.8671 93.8978 19.6664C94.39 19.4656 94.8323 19.1656 95.1955 18.7864C95.9717 17.9529 96.3793 16.8575 96.3305 15.7358C96.3566 15.1899 96.2698 14.6443 96.0747 14.1314C95.8795 13.6186 95.5803 13.1488 95.1955 12.7496C94.8258 12.3721 94.377 12.075 93.8804 11.8778C93.3828 11.6808 92.8484 11.5884 92.3117 11.6066H92.3258Z" fill="url(#paint5_linear_2155_192)"/>
<path d="M100.527 8.69141H104.274L108.064 17.5643L112.246 8.69141H116L106.863 28.0088H103.079L106.074 21.7793L100.527 8.69141Z" fill="url(#paint6_linear_2155_192)"/>
<path d="M9.99835 51.1262H5.34968C5.2687 51.3562 5.18197 51.6093 5.08949 51.8854C4.99691 52.15 4.90443 52.4146 4.81196 52.6791C4.73098 52.9322 4.64999 53.1738 4.56912 53.4038C4.48814 53.6224 4.4245 53.8064 4.37832 53.956C4.21635 54.025 4.02555 54.0595 3.80591 54.0595C3.62085 54.0595 3.45314 54.0135 3.30288 53.9215C3.16411 53.818 3.09473 53.6569 3.09473 53.4384C3.09473 53.3348 3.11207 53.2313 3.14676 53.1278C3.18146 53.0127 3.22189 52.8919 3.26818 52.7654C3.44164 52.2823 3.66129 51.6611 3.92733 50.9019C4.20486 50.1427 4.49974 49.3374 4.81196 48.4862C5.13568 47.6235 5.4595 46.7607 5.78332 45.898C6.11864 45.0237 6.42512 44.2415 6.70265 43.5513C6.79513 43.5052 6.93389 43.4593 7.11895 43.4133C7.3039 43.3672 7.49471 43.3442 7.69136 43.3442C7.9226 43.3442 8.14235 43.3787 8.3505 43.4478C8.57014 43.5168 8.70891 43.6319 8.7668 43.7929C9.04434 44.4601 9.33921 45.225 9.65144 46.0878C9.97515 46.939 10.299 47.8133 10.6228 48.7105C10.9465 49.6078 11.253 50.4935 11.5421 51.3678C11.8428 52.2305 12.1087 53.0127 12.34 53.7144C12.2475 53.818 12.1376 53.8985 12.0105 53.956C11.8832 54.025 11.7387 54.0595 11.5768 54.0595C11.3571 54.0595 11.1894 54.0135 11.0738 53.9215C10.9581 53.818 10.8598 53.6511 10.7789 53.4211L9.99835 51.1262ZM7.67401 44.5176C7.54674 44.8627 7.40223 45.2595 7.24037 45.7082C7.07841 46.1452 6.9108 46.6054 6.73734 47.0886C6.56389 47.5717 6.39043 48.0605 6.21697 48.5552C6.04351 49.0499 5.88154 49.5215 5.73129 49.9701H9.63409C9.46063 49.4525 9.28132 48.9348 9.09637 48.4172C8.91131 47.888 8.73211 47.3819 8.55865 46.8987C8.39669 46.4156 8.24057 45.9727 8.09032 45.5701C7.95155 45.156 7.83588 44.8052 7.7434 44.5176H7.67401Z" fill="#EC597C"/>
<path d="M26.8899 51.1954C26.8091 51.2529 26.6991 51.3046 26.5604 51.3507C26.4332 51.3967 26.2887 51.4197 26.1267 51.4197C25.9418 51.4197 25.7741 51.3909 25.6237 51.3334C25.4849 51.2759 25.3867 51.1838 25.3288 51.0573C24.7044 49.7689 24.1667 48.5899 23.7157 47.5201C23.2647 46.4503 22.9004 45.5646 22.6229 44.8628H22.5535C22.5188 45.7256 22.4784 46.5308 22.4321 47.2785C22.3974 48.0148 22.3569 48.7395 22.3107 49.4526C22.2645 50.1544 22.2182 50.8675 22.1719 51.5922C22.1257 52.3169 22.0794 53.0934 22.0331 53.9217C21.9637 53.9446 21.8713 53.9677 21.7556 53.9907C21.6515 54.0136 21.5359 54.0252 21.4087 54.0252C21.1543 54.0252 20.975 53.9734 20.871 53.8699C20.7669 53.7664 20.7148 53.6168 20.7148 53.4213C20.7148 53.3062 20.7207 53.0589 20.7322 52.6793C20.7554 52.2997 20.7842 51.8395 20.8189 51.2989C20.8536 50.7583 20.8883 50.1601 20.923 49.5044C20.9693 48.8487 21.0156 48.1815 21.0618 47.5028C21.1197 46.8242 21.1717 46.1569 21.2179 45.5013C21.2758 44.8456 21.3278 44.2474 21.374 43.7068C21.4666 43.6262 21.5995 43.5515 21.7729 43.4824C21.9464 43.4134 22.1431 43.3789 22.3627 43.3789C22.8947 43.3789 23.2647 43.5917 23.4728 44.0173C23.6926 44.466 23.9123 44.9434 24.132 45.4495C24.3633 45.9442 24.5888 46.4503 24.8085 46.9679C25.0398 47.4856 25.2594 47.9975 25.4676 48.5036C25.6873 49.0097 25.8955 49.4929 26.092 49.953H26.1614C26.4159 49.3434 26.6703 48.7452 26.9246 48.1585C27.1791 47.5603 27.4277 46.9852 27.6705 46.433C27.9133 45.8809 28.1447 45.3632 28.3643 44.8801C28.5841 44.3969 28.7806 43.954 28.9541 43.5515C29.0582 43.494 29.1912 43.4536 29.353 43.4307C29.515 43.3962 29.6653 43.3789 29.804 43.3789C30.3476 43.3789 30.6598 43.563 30.7407 43.9311C30.787 44.1381 30.839 44.4832 30.8968 44.9664C30.9547 45.438 31.0125 45.9844 31.0703 46.6056C31.1282 47.2268 31.1802 47.894 31.2264 48.6071C31.2843 49.3203 31.3363 50.0105 31.3825 50.6777C31.4288 51.3334 31.4692 51.9431 31.5039 52.5068C31.5386 53.0589 31.5676 53.496 31.5907 53.8181C31.3825 53.9562 31.1397 54.0252 30.8621 54.0252C30.6887 54.0252 30.5326 53.985 30.3938 53.9044C30.2666 53.8124 30.1915 53.6513 30.1683 53.4213C30.1105 52.5815 30.0585 51.7475 30.0122 50.9193C29.966 50.0911 29.9197 49.3031 29.8734 48.5554C29.8387 47.8077 29.804 47.1232 29.7694 46.502C29.7347 45.8693 29.7058 45.3344 29.6826 44.8973H29.6132C29.4861 45.2195 29.3357 45.5818 29.1622 45.9844C29.0004 46.387 28.8038 46.8414 28.5725 47.3475C28.3528 47.8536 28.1042 48.4289 27.8266 49.073C27.5491 49.7057 27.2369 50.4132 26.8899 51.1954Z" fill="#EC597C"/>
<path d="M41.691 53.9216C41.4597 53.9216 41.2747 53.8526 41.1359 53.7146C40.9971 53.5765 40.9277 53.3925 40.9277 53.1624V44.1899C40.9277 43.9599 40.9971 43.7758 41.1359 43.6377C41.2747 43.4997 41.4597 43.4307 41.691 43.4307H47.4498C47.4844 43.4881 47.5191 43.5687 47.5538 43.6722C47.5885 43.7642 47.6059 43.8678 47.6059 43.9828C47.6059 44.1783 47.5596 44.3336 47.4671 44.4487C47.3746 44.5638 47.2416 44.6213 47.0681 44.6213H42.3327V47.9515H46.912C46.9467 48.0089 46.9814 48.0895 47.0161 48.193C47.0508 48.285 47.0681 48.3885 47.0681 48.5036C47.0681 48.6991 47.0219 48.8544 46.9294 48.9695C46.8369 49.073 46.7039 49.1248 46.5304 49.1248H42.3327V52.7483H47.5365C47.5712 52.8058 47.6059 52.8806 47.6406 52.9726C47.6753 53.0646 47.6926 53.174 47.6926 53.3005C47.6926 53.496 47.6463 53.6513 47.5538 53.7664C47.4614 53.8699 47.3283 53.9216 47.1549 53.9216H41.691Z" fill="#EC597C"/>
<path d="M58.0698 53.887C58.0004 53.91 57.908 53.933 57.7923 53.956C57.6766 53.9905 57.5494 54.0078 57.4107 54.0078C56.9019 54.0078 56.6475 53.795 56.6475 53.3693V44.1897C56.6475 44.0057 56.6938 43.8676 56.7862 43.7756C56.8787 43.6721 57.0233 43.5915 57.2199 43.5341C57.5552 43.4305 57.9657 43.3558 58.4514 43.3097C58.9487 43.2637 59.4285 43.2407 59.8911 43.2407C61.3482 43.2407 62.4294 43.5341 63.1348 44.1207C63.8517 44.6958 64.2102 45.5184 64.2102 46.5882C64.2102 47.3819 64.0021 48.0491 63.5858 48.5897C63.1811 49.1304 62.5624 49.5158 61.7298 49.7458C62.0189 50.1139 62.3079 50.4821 62.5971 50.8501C62.8862 51.2182 63.1579 51.5691 63.4123 51.9027C63.6783 52.2248 63.9096 52.5181 64.1062 52.7827C64.3143 53.0472 64.4762 53.2543 64.5918 53.4039C64.5456 53.5994 64.4415 53.7547 64.2796 53.8697C64.1292 53.9848 63.9731 54.0423 63.8113 54.0423C63.6147 54.0423 63.4528 53.9962 63.3256 53.9043C63.1984 53.8123 63.0654 53.6684 62.9266 53.4729L60.3942 49.9529H58.0698V53.887ZM60.0472 48.7795C60.9029 48.7795 61.5737 48.5955 62.0594 48.2274C62.545 47.8593 62.7879 47.3129 62.7879 46.5882C62.7879 45.8635 62.5334 45.3228 62.0247 44.9662C61.5159 44.5981 60.7874 44.4141 59.8391 44.4141C59.5269 44.4141 59.2089 44.4313 58.8851 44.4658C58.5728 44.4888 58.2953 44.5233 58.0525 44.5693V48.7795H60.0472Z" fill="#EC597C"/>
<path d="M74.7888 53.887C74.7313 53.9099 74.6446 53.933 74.5286 53.956C74.4126 53.9905 74.2858 54.0078 74.147 54.0078C73.6381 54.0078 73.3838 53.795 73.3838 53.3693V43.465C73.4416 43.4421 73.5283 43.419 73.644 43.396C73.7708 43.3615 73.9042 43.3442 74.0429 43.3442C74.5405 43.3442 74.7888 43.557 74.7888 43.9827V53.887Z" fill="#EC597C"/>
<path d="M92.1114 44.5867C92.1114 44.7477 92.0593 44.8857 91.9553 45.0008C91.8631 45.1159 91.7536 45.2022 91.6257 45.2596C91.3254 45.0526 90.9731 44.8571 90.5676 44.673C90.1632 44.4889 89.6374 44.3969 88.9891 44.3969C88.4579 44.3969 87.9657 44.4889 87.5147 44.673C87.0637 44.8571 86.6713 45.1273 86.3352 45.4839C86.0002 45.8406 85.7346 46.2892 85.5373 46.8298C85.353 47.3704 85.2598 47.9916 85.2598 48.6934C85.2598 49.4065 85.353 50.0277 85.5373 50.5569C85.7227 51.0861 85.9775 51.5289 86.3005 51.8855C86.6366 52.2422 87.0356 52.5124 87.4974 52.6965C87.9603 52.869 88.4753 52.9553 89.0412 52.9553C89.6429 52.9553 90.1632 52.8748 90.6023 52.7138C91.0533 52.5412 91.4295 52.3399 91.7298 52.1098C91.8458 52.1559 91.9553 52.2422 92.0593 52.3687C92.1634 52.4837 92.2154 52.6218 92.2154 52.7828C92.2154 53.0243 92.0767 53.2429 91.7992 53.4385C91.5335 53.6225 91.1693 53.7836 90.7064 53.9216C90.2445 54.0712 89.6548 54.1459 88.9371 54.1459C88.2086 54.1459 87.5321 54.0308 86.9076 53.8008C86.2832 53.5708 85.74 53.2314 85.2771 52.7828C84.8261 52.3226 84.4684 51.7532 84.2017 51.0745C83.9361 50.3959 83.8027 49.6022 83.8027 48.6934C83.8027 47.7846 83.9361 46.9908 84.2017 46.3122C84.4792 45.622 84.85 45.0469 85.3118 44.5867C85.7747 44.1265 86.3125 43.7814 86.925 43.5514C87.5494 43.3214 88.2031 43.2063 88.8851 43.2063C89.3599 43.2063 89.7935 43.2465 90.186 43.3271C90.5915 43.4076 90.9319 43.5169 91.2094 43.6549C91.4989 43.7814 91.7189 43.931 91.8685 44.1036C92.0311 44.2646 92.1114 44.4257 92.1114 44.5867Z" fill="#EC597C"/>
<path d="M107.331 51.1262H102.683C102.602 51.3562 102.516 51.6093 102.422 51.8854C102.33 52.15 102.238 52.4146 102.145 52.6791C102.065 52.9322 101.983 53.1738 101.902 53.4038C101.822 53.6224 101.758 53.8064 101.711 53.956C101.55 54.025 101.359 54.0595 101.139 54.0595C100.955 54.0595 100.787 54.0135 100.636 53.9215C100.497 53.818 100.428 53.6569 100.428 53.4384C100.428 53.3348 100.445 53.2313 100.48 53.1278C100.514 53.0127 100.556 52.8919 100.601 52.7654C100.775 52.2823 100.995 51.6611 101.26 50.9019C101.538 50.1427 101.833 49.3374 102.145 48.4862C102.469 47.6235 102.793 46.7607 103.116 45.898C103.452 45.0237 103.758 44.2415 104.036 43.5513C104.129 43.5052 104.268 43.4593 104.452 43.4133C104.637 43.3672 104.828 43.3442 105.024 43.3442C105.256 43.3442 105.475 43.3787 105.684 43.4478C105.904 43.5168 106.042 43.6319 106.1 43.7929C106.377 44.4601 106.672 45.225 106.984 46.0878C107.309 46.939 107.633 47.8133 107.956 48.7105C108.28 49.6078 108.587 50.4935 108.875 51.3678C109.177 52.2305 109.442 53.0127 109.673 53.7144C109.581 53.818 109.471 53.8985 109.343 53.956C109.217 54.025 109.072 54.0595 108.91 54.0595C108.691 54.0595 108.523 54.0135 108.407 53.9215C108.292 53.818 108.193 53.6511 108.112 53.4211L107.331 51.1262ZM105.007 44.5176C104.88 44.8627 104.736 45.2595 104.573 45.7082C104.412 46.1452 104.244 46.6054 104.07 47.0886C103.897 47.5717 103.723 48.0605 103.55 48.5552C103.377 49.0499 103.215 49.5215 103.064 49.9701H106.967C106.794 49.4525 106.615 48.9348 106.429 48.4172C106.245 47.888 106.065 47.3819 105.892 46.8987C105.73 46.4156 105.574 45.9727 105.423 45.5701C105.285 45.156 105.17 44.8052 105.076 44.5176H105.007Z" fill="#EC597C"/>
<path fill-rule="evenodd" clip-rule="evenodd" d="M116 32.3529H0V30.196H116V32.3529Z" fill="#EC597C"/>
</g>
<defs>
<linearGradient id="paint0_linear_2155_192" x1="17.7658" y1="5.29672" x2="12.8203" y2="24.3764" gradientUnits="userSpaceOnUse">
<stop stop-color="#EC597C"/>
<stop offset="1" stop-color="#FF719F"/>
</linearGradient>
<linearGradient id="paint1_linear_2155_192" x1="35.0513" y1="9.87078" x2="31.4191" y2="24.022" gradientUnits="userSpaceOnUse">
<stop stop-color="#EC597C"/>
<stop offset="1" stop-color="#FF719F"/>
</linearGradient>
<linearGradient id="paint2_linear_2155_192" x1="50.0647" y1="9.77921" x2="46.0861" y2="23.3145" gradientUnits="userSpaceOnUse">
<stop stop-color="#EC597C"/>
<stop offset="1" stop-color="#FF719F"/>
</linearGradient>
<linearGradient id="paint3_linear_2155_192" x1="65.0658" y1="5.67216" x2="58.2586" y2="22.2783" gradientUnits="userSpaceOnUse">
<stop stop-color="#EC597C"/>
<stop offset="1" stop-color="#FF719F"/>
</linearGradient>
<linearGradient id="paint4_linear_2155_192" x1="80.9151" y1="9.85471" x2="77.2728" y2="24.0059" gradientUnits="userSpaceOnUse">
<stop stop-color="#EC597C"/>
<stop offset="1" stop-color="#FF719F"/>
</linearGradient>
<linearGradient id="paint5_linear_2155_192" x1="97.0374" y1="5.28981" x2="90.7404" y2="23.3301" gradientUnits="userSpaceOnUse">
<stop stop-color="#EC597C"/>
<stop offset="1" stop-color="#FF719F"/>
</linearGradient>
<linearGradient id="paint6_linear_2155_192" x1="113.112" y1="10.6742" x2="107.276" y2="28.3313" gradientUnits="userSpaceOnUse">
<stop stop-color="#EC597C"/>
<stop offset="1" stop-color="#FF719F"/>
</linearGradient>
<clipPath id="clip0_2155_192">
<rect width="116" height="55" fill="white"/>
</clipPath>
</defs>
</svg>
