<svg width="174" height="83" viewBox="0 0 174 83" fill="none" xmlns="http://www.w3.org/2000/svg">
<g clip-path="url(#clip0_2155_453)">
<path d="M30.3228 10.3133L26.3514 14.1406C25.2529 12.9242 23.9019 11.9492 22.3878 11.2801C20.8735 10.6111 19.2306 10.2631 17.568 10.2594C16.2163 10.2216 14.8708 10.4525 13.6136 10.9381C12.3564 11.4238 11.2141 12.1539 10.2559 13.084C9.29941 13.9647 8.54259 15.0307 8.03392 16.2134C7.52526 17.3961 7.27613 18.6694 7.30231 19.9515C7.28052 21.2722 7.54071 22.5828 8.06628 23.8003C8.59186 25.0178 9.37145 26.1155 10.3554 27.0238C11.3544 27.9747 12.5384 28.7212 13.838 29.2194C15.1375 29.7174 16.5261 29.957 17.922 29.9239C19.6451 29.9778 21.3495 29.5634 22.8447 28.7272C24.2792 27.8211 25.4038 26.5185 26.075 24.9862H17.5016V19.8329H32.3915V21.0403C32.3838 23.5651 31.689 26.0428 30.3781 28.2205C29.1457 30.3708 27.3422 32.1582 25.1568 33.3954C22.8626 34.6268 20.2749 35.2442 17.6566 35.185C14.7892 35.2314 11.958 34.5555 9.43731 33.2229C7.04115 31.9263 5.06422 30.0035 3.72913 27.6707C2.33469 25.3028 1.60942 22.617 1.62731 19.8868C1.57674 16.203 2.96483 12.6382 5.51027 9.91439C7.00537 8.27013 8.85416 6.9674 10.9249 6.09904C12.9957 5.23067 15.2375 4.81801 17.4906 4.89045C19.9747 4.86493 22.4374 5.33836 24.7254 6.2812C26.8627 7.22444 28.7705 8.59869 30.3228 10.3133Z" fill="white"/>
<path d="M56.872 25.3203H39.1725C39.3709 26.7306 40.0957 28.0202 41.208 28.9426C42.4097 29.8709 43.9126 30.3489 45.4448 30.2903C46.4259 30.3035 47.3996 30.1243 48.308 29.763C49.2164 29.4019 50.041 28.8663 50.7326 28.188L55.3677 30.3442C54.3178 31.852 52.8899 33.073 51.2193 33.8912C49.4219 34.6879 47.463 35.0785 45.489 35.034C43.9427 35.0913 42.4006 34.8407 40.9569 34.2976C39.5133 33.7545 38.1984 32.9302 37.0928 31.8751C36.027 30.8352 35.1908 29.594 34.6353 28.2277C34.0798 26.8613 33.8169 25.3985 33.8626 23.9296C33.8167 22.4389 34.078 20.9543 34.6309 19.5636C35.1838 18.173 36.0171 16.9046 37.0817 15.8331C38.13 14.7764 39.392 13.9434 40.7878 13.3867C42.1835 12.8299 43.6827 12.5617 45.1903 12.5988C46.7449 12.5434 48.2943 12.8021 49.7411 13.3587C51.1881 13.9153 52.5011 14.7578 53.5976 15.8331C54.693 16.9701 55.5431 18.3097 56.098 19.7726C56.6528 21.2355 56.901 22.792 56.8278 24.35L56.872 25.3203ZM51.341 21.105C50.985 19.9285 50.228 18.9055 49.1949 18.2049C48.1046 17.4706 46.803 17.093 45.478 17.1267C44.0305 17.0969 42.6141 17.5368 41.4512 18.3774C40.5533 19.1182 39.8609 20.0673 39.4379 21.1372L51.341 21.105Z" fill="white"/>
<path d="M59.2626 13.1163H64.7937V15.2724C65.8014 14.3881 66.9432 13.6608 68.1787 13.1163C69.1648 12.7198 70.2207 12.5148 71.2873 12.5125C72.3162 12.4937 73.3381 12.6812 74.2895 13.0632C75.241 13.4452 76.1017 14.0137 76.8184 14.7334C77.5038 15.4905 78.0263 16.3739 78.355 17.3313C78.6838 18.2886 78.8119 19.3006 78.7322 20.3071V34.3979H73.2454V25.0723C73.3198 23.3718 73.1974 21.6683 72.8803 19.9945C72.7109 19.2384 72.2815 18.5614 71.6634 18.0756C71.0268 17.6124 70.2444 17.3798 69.451 17.4179C68.3914 17.3994 67.3668 17.7865 66.597 18.4959C65.7453 19.3142 65.1636 20.3615 64.9265 21.5038C64.722 22.932 64.6442 24.3749 64.6942 25.8162V34.3763H59.1631L59.2626 13.1163Z" fill="white"/>
<path d="M82.5264 34.4518V5.61273H87.1725C89.1629 5.54013 91.1548 5.71036 93.1018 6.11943C94.7551 6.50115 96.2376 7.39363 97.3277 8.66374C98.3737 9.89995 98.931 11.4604 98.8985 13.0624C98.918 14.1007 98.6708 15.1272 98.1795 16.0487C97.6166 17.0506 96.8256 17.9135 95.8675 18.5715C97.4478 19.2241 98.8111 20.2915 99.8057 21.6549C100.659 22.9646 101.094 24.4917 101.056 26.0426C101.074 27.6092 100.628 29.1475 99.7725 30.4737C98.9755 31.7527 97.8255 32.7876 96.4538 33.4601C94.6828 34.2043 92.7605 34.5436 90.8341 34.4518H82.5264ZM88.1571 10.8523V16.9219H89.3961C90.4842 17.006 91.5672 16.7079 92.4492 16.081C92.7824 15.796 93.046 15.4418 93.2202 15.0443C93.3945 14.6469 93.475 14.2165 93.4558 13.7847C93.4744 13.3786 93.3984 12.9738 93.2337 12.6004C93.069 12.227 92.8197 11.8947 92.5045 11.6285C91.6737 11.0291 90.6473 10.7454 89.6173 10.8307L88.1571 10.8523ZM88.1571 21.8274V29.223H89.573C91.9072 29.223 93.489 28.932 94.2966 28.3606C94.6995 28.0743 95.0227 27.6948 95.2371 27.2562C95.4515 26.8176 95.5503 26.3338 95.5245 25.8486C95.5474 25.2811 95.4285 24.7167 95.1781 24.2041C94.9275 23.6914 94.553 23.2457 94.0865 22.9054C92.6587 22.0625 90.9925 21.685 89.3298 21.8274H88.1571Z" fill="white"/>
<path d="M114.041 12.5664C116.087 12.563 118.097 13.0834 119.871 14.0758C121.631 15.05 123.093 16.4615 124.109 18.1659C125.125 19.8705 125.659 21.8071 125.657 23.7786C125.664 25.7622 125.129 27.7117 124.109 29.4278C123.128 31.1497 121.678 32.5719 119.917 33.5354C118.136 34.5305 116.116 35.0442 114.064 35.0232C112.57 35.0492 111.085 34.7755 109.704 34.2192C108.322 33.6628 107.073 32.8356 106.033 31.7889C104.941 30.7072 104.084 29.4221 103.512 28.0108C102.94 26.5993 102.666 25.0902 102.705 23.5731C102.744 22.0561 103.096 20.5625 103.74 19.1808C104.384 17.7992 105.307 16.558 106.453 15.5312C108.497 13.6282 111.215 12.5663 114.041 12.5664ZM114.131 17.6119C113.336 17.5929 112.545 17.7377 111.81 18.0368C111.077 18.3358 110.416 18.7825 109.871 19.3476C109.3 19.9391 108.855 20.6355 108.563 21.3962C108.27 22.157 108.136 22.9669 108.168 23.7786C108.095 25.4416 108.699 27.0654 109.849 28.2958C110.395 28.8615 111.059 29.3077 111.794 29.6051C112.531 29.9024 113.323 30.0442 114.119 30.0207C114.918 30.0401 115.711 29.8956 116.45 29.5966C117.186 29.2976 117.851 28.8507 118.401 28.285C119.499 27.0379 120.102 25.4489 120.102 23.8056C120.102 22.1622 119.499 20.5732 118.401 19.3261C117.85 18.7662 117.186 18.3246 116.451 18.0293C115.716 17.7341 114.926 17.592 114.131 17.6119Z" fill="white"/>
<path d="M144.264 4.89087H149.796V34.4523H144.264V32.1991C143.336 33.1088 142.241 33.8404 141.035 34.3553C139.922 34.8015 138.73 35.0253 137.529 35.0129C136.14 35.0126 134.767 34.7241 133.504 34.1663C132.239 33.6086 131.11 32.7947 130.193 31.7787C128.123 29.6209 127.011 26.7538 127.097 23.8008C126.978 20.8248 128.053 17.921 130.094 15.7042C131 14.6981 132.118 13.8948 133.374 13.3496C134.628 12.8043 135.989 12.53 137.363 12.5454C138.636 12.5393 139.898 12.7888 141.067 13.2785C142.269 13.7855 143.355 14.5182 144.264 15.4347V4.89087ZM138.49 17.5154C137.698 17.4933 136.907 17.6376 136.177 17.939C135.446 18.2404 134.79 18.6916 134.254 19.262C133.104 20.4892 132.496 22.1079 132.561 23.7684C132.509 25.4456 133.128 27.077 134.286 28.3179C134.818 28.8947 135.47 29.3531 136.2 29.662C136.929 29.9709 137.717 30.1228 138.512 30.1076C139.313 30.1277 140.109 29.9812 140.848 29.6783C141.586 29.3753 142.249 28.9225 142.794 28.3503C143.959 27.0925 144.57 25.4395 144.497 23.7467C144.536 22.9229 144.406 22.0996 144.113 21.3256C143.82 20.5517 143.371 19.8426 142.794 19.2403C142.24 18.6706 141.566 18.2222 140.822 17.9247C140.075 17.6274 139.274 17.4879 138.469 17.5154H138.49Z" fill="white"/>
<path d="M150.791 13.1162H156.411L162.096 26.5062L168.368 13.1162H174L160.294 42.2679H154.619L159.11 32.867L150.791 13.1162Z" fill="white"/>
<path d="M14.998 77.1543H8.02501C7.90354 77.5015 7.77344 77.8834 7.63473 78.3001C7.49585 78.6993 7.35714 79.0986 7.21843 79.4979C7.09695 79.8798 6.97548 80.2444 6.85417 80.5915C6.73269 80.9214 6.63724 81.199 6.56796 81.4248C6.32501 81.5289 6.03881 81.581 5.70935 81.581C5.43176 81.581 5.18019 81.5115 4.9548 81.3727C4.74666 81.2164 4.64258 80.9735 4.64258 80.6436C4.64258 80.4873 4.6686 80.3311 4.72063 80.1749C4.77267 80.0012 4.83333 79.819 4.90276 79.6281C5.16295 78.899 5.49242 77.9615 5.89148 76.8158C6.30778 75.6701 6.75009 74.4549 7.21843 73.1703C7.704 71.8684 8.18974 70.5664 8.67547 69.2644C9.17845 67.9451 9.63816 66.7647 10.0545 65.7231C10.1932 65.6536 10.4013 65.5843 10.6789 65.5148C10.9563 65.4453 11.2425 65.4106 11.5375 65.4106C11.8844 65.4106 12.214 65.4627 12.5262 65.5669C12.8557 65.671 13.0639 65.8447 13.1507 66.0877C13.567 67.0946 14.0093 68.2489 14.4776 69.5509C14.9632 70.8354 15.449 72.1548 15.9347 73.5088C16.4203 74.8629 16.88 76.1995 17.3137 77.5189C17.7646 78.8208 18.1635 80.0012 18.5105 81.0602C18.3717 81.2164 18.2069 81.338 18.0162 81.4248C17.8253 81.5289 17.6085 81.581 17.3657 81.581C17.0361 81.581 16.7845 81.5115 16.6112 81.3727C16.4377 81.2164 16.2902 80.9647 16.1689 80.6175L14.998 77.1543ZM11.5115 67.1813C11.3206 67.7021 11.1038 68.301 10.861 68.978C10.6181 69.6376 10.3667 70.3321 10.1065 71.0612C9.84632 71.7903 9.58613 72.528 9.32594 73.2745C9.06576 74.021 8.8228 74.7327 8.59742 75.4097H14.4516C14.1914 74.6285 13.9225 73.8473 13.645 73.0662C13.3675 72.2676 13.0987 71.5038 12.8385 70.7747C12.5955 70.0456 12.3614 69.3772 12.136 68.7697C11.9278 68.1448 11.7543 67.6153 11.6156 67.1813H11.5115Z" fill="white"/>
<path d="M40.3349 77.2584C40.2136 77.3452 40.0487 77.4233 39.8406 77.4928C39.6498 77.5623 39.4331 77.5969 39.1901 77.5969C38.9127 77.5969 38.6611 77.5535 38.4356 77.4667C38.2274 77.38 38.0801 77.241 37.9932 77.0501C37.0566 75.1058 36.25 73.3265 35.5735 71.7121C34.897 70.0976 34.3506 68.761 33.9343 67.702H33.8302C33.7782 69.004 33.7176 70.2192 33.6481 71.3475C33.5961 72.4586 33.5354 73.5522 33.466 74.6285C33.3967 75.6874 33.3273 76.7637 33.2578 77.8573C33.1886 78.951 33.1191 80.1227 33.0497 81.3726C32.9456 81.4073 32.8069 81.4421 32.6334 81.4768C32.4773 81.5114 32.3039 81.5288 32.113 81.5288C31.7315 81.5288 31.4625 81.4507 31.3064 81.2945C31.1503 81.1383 31.0723 80.9125 31.0723 80.6175C31.0723 80.4438 31.081 80.0706 31.0983 79.4978C31.1331 78.9249 31.1763 78.2305 31.2284 77.4147C31.2804 76.5988 31.3325 75.6961 31.3845 74.7066C31.4539 73.7171 31.5234 72.7102 31.5926 71.686C31.6795 70.6619 31.7575 69.655 31.8268 68.6655C31.9136 67.676 31.9917 66.7732 32.061 65.9574C32.1998 65.8358 32.3992 65.723 32.6594 65.6189C32.9196 65.5147 33.2146 65.4626 33.544 65.4626C34.342 65.4626 34.897 65.7837 35.2092 66.4261C35.5389 67.1031 35.8685 67.8236 36.1979 68.5874C36.545 69.3339 36.8832 70.0976 37.2127 70.8788C37.5597 71.66 37.8892 72.4325 38.2014 73.1963C38.531 73.9601 38.8432 74.6892 39.1381 75.3836H39.2421C39.6238 74.4636 40.0055 73.5608 40.387 72.6755C40.7686 71.7728 41.1415 70.9048 41.5058 70.0716C41.87 69.2383 42.217 68.4572 42.5465 67.7281C42.8761 66.999 43.171 66.3306 43.4311 65.723C43.5873 65.6363 43.7868 65.5754 44.0296 65.5408C44.2725 65.4887 44.4979 65.4626 44.7061 65.4626C45.5214 65.4626 45.9898 65.7405 46.1111 66.2959C46.1805 66.6084 46.2586 67.1292 46.3452 67.8583C46.4321 68.5699 46.5188 69.3946 46.6054 70.332C46.6923 71.2694 46.7703 72.2763 46.8396 73.3525C46.9264 74.4288 47.0045 75.4703 47.0738 76.4772C47.1432 77.4667 47.2039 78.3867 47.2559 79.2374C47.3079 80.0706 47.3514 80.7303 47.386 81.2164C47.0738 81.4247 46.7095 81.5288 46.2932 81.5288C46.033 81.5288 45.7989 81.4681 45.5907 81.3466C45.4 81.2078 45.2873 80.9646 45.2525 80.6175C45.1658 79.3502 45.0877 78.0917 45.0183 76.8418C44.949 75.5919 44.8796 74.4027 44.8101 73.2744C44.7581 72.1461 44.7061 71.1132 44.654 70.1757C44.602 69.2209 44.5587 68.4137 44.5239 67.7541H44.4199C44.2291 68.2402 44.0036 68.787 43.7434 69.3946C43.5006 70.0021 43.2058 70.6879 42.8587 71.4517C42.5293 72.2154 42.1562 73.0835 41.7399 74.0556C41.3236 75.0104 40.8553 76.078 40.3349 77.2584Z" fill="white"/>
<path d="M62.5364 81.3726C62.1896 81.3726 61.912 81.2685 61.7038 81.0602C61.4957 80.8518 61.3916 80.574 61.3916 80.2269V66.6865C61.3916 66.3394 61.4957 66.0616 61.7038 65.8532C61.912 65.6449 62.1896 65.5408 62.5364 65.5408H71.1746C71.2267 65.6275 71.2787 65.7491 71.3307 65.9053C71.3828 66.0441 71.4088 66.2004 71.4088 66.374C71.4088 66.6691 71.3394 66.9034 71.2007 67.0771C71.0619 67.2507 70.8624 67.3375 70.6022 67.3375H63.4991V72.3631H70.3681C70.4201 72.4498 70.4721 72.5714 70.5242 72.7276C70.5762 72.8664 70.6022 73.0227 70.6022 73.1963C70.6022 73.4914 70.5328 73.7257 70.3941 73.8994C70.2554 74.0556 70.0558 74.1337 69.7956 74.1337H63.4991V79.602H71.3047C71.3568 79.6887 71.4088 79.8016 71.4608 79.9405C71.5129 80.0793 71.5389 80.2443 71.5389 80.4352C71.5389 80.7303 71.4695 80.9646 71.3307 81.1383C71.192 81.2945 70.9925 81.3726 70.7323 81.3726H62.5364Z" fill="white"/>
<path d="M87.1042 81.3206C87.0002 81.3552 86.8615 81.3901 86.6879 81.4247C86.5144 81.4768 86.3237 81.5029 86.1155 81.5029C85.3524 81.5029 84.9707 81.1818 84.9707 80.5394V66.6866C84.9707 66.4087 85.0401 66.2004 85.1789 66.0616C85.3176 65.9054 85.5345 65.7838 85.8293 65.6971C86.3323 65.5408 86.9481 65.428 87.6767 65.3586C88.4226 65.2891 89.1423 65.2544 89.8362 65.2544C92.0218 65.2544 93.6436 65.6971 94.7017 66.5824C95.7771 67.4503 96.3149 68.6916 96.3149 70.306C96.3149 71.5038 96.0026 72.5107 95.3782 73.3265C94.7711 74.1424 93.8431 74.724 92.5942 75.0712C93.0279 75.6266 93.4614 76.1822 93.8951 76.7377C94.3288 77.2931 94.7364 77.8227 95.118 78.3261C95.5169 78.8122 95.8639 79.2549 96.1588 79.6541C96.471 80.0533 96.7138 80.3658 96.8873 80.5915C96.8178 80.8865 96.6617 81.1209 96.4189 81.2945C96.1934 81.4682 95.9592 81.5549 95.7164 81.5549C95.4216 81.5549 95.1787 81.4854 94.9879 81.3466C94.7972 81.2078 94.5976 80.9907 94.3895 80.6956L90.5907 75.3836H87.1042V81.3206ZM90.0704 73.613C91.3539 73.613 92.36 73.3352 93.0886 72.7797C93.8171 72.2243 94.1813 71.3996 94.1813 70.306C94.1813 69.2124 93.7997 68.3965 93.0365 67.8583C92.2733 67.3029 91.1806 67.0251 89.7581 67.0251C89.2898 67.0251 88.8129 67.0511 88.3271 67.1032C87.8588 67.1378 87.4425 67.1899 87.0782 67.2594V73.613H90.0704Z" fill="white"/>
<path d="M112.183 81.3206C112.097 81.3553 111.966 81.3901 111.792 81.4248C111.618 81.4768 111.428 81.5029 111.22 81.5029C110.457 81.5029 110.075 81.1818 110.075 80.5394V65.5929C110.162 65.5583 110.292 65.5234 110.465 65.4888C110.656 65.4367 110.856 65.4106 111.064 65.4106C111.81 65.4106 112.183 65.7317 112.183 66.3741V81.3206Z" fill="white"/>
<path d="M138.167 67.2853C138.167 67.5283 138.089 67.7366 137.933 67.9102C137.795 68.0839 137.63 68.2141 137.439 68.3008C136.988 67.9883 136.46 67.6933 135.851 67.4155C135.245 67.1377 134.456 66.9989 133.484 66.9989C132.687 66.9989 131.949 67.1377 131.272 67.4155C130.596 67.6933 130.007 68.1011 129.503 68.6393C129 69.1775 128.602 69.8545 128.306 70.6704C128.03 71.4862 127.89 72.4236 127.89 73.4826C127.89 74.5589 128.03 75.4963 128.306 76.2949C128.584 77.0934 128.966 77.7617 129.451 78.2999C129.955 78.8381 130.553 79.2459 131.246 79.5237C131.94 79.7841 132.713 79.9143 133.562 79.9143C134.464 79.9143 135.245 79.7927 135.903 79.5498C136.58 79.2894 137.144 78.9855 137.595 78.6384C137.769 78.7079 137.933 78.8381 138.089 79.029C138.245 79.2026 138.323 79.4109 138.323 79.6539C138.323 80.0185 138.115 80.3483 137.699 80.6434C137.3 80.9212 136.754 81.1642 136.06 81.3725C135.367 81.5982 134.482 81.711 133.406 81.711C132.313 81.711 131.298 81.5374 130.361 81.1902C129.425 80.8431 128.61 80.3309 127.916 79.6539C127.239 78.9595 126.703 78.1002 126.303 77.076C125.904 76.0519 125.704 74.8541 125.704 73.4826C125.704 72.1112 125.904 70.9134 126.303 69.8892C126.719 68.8476 127.275 67.9797 127.968 67.2853C128.662 66.5909 129.469 66.0701 130.387 65.7229C131.324 65.3758 132.305 65.2021 133.328 65.2021C134.04 65.2021 134.69 65.2629 135.279 65.3844C135.887 65.506 136.398 65.6709 136.814 65.8792C137.248 66.0701 137.578 66.2958 137.803 66.5562C138.047 66.7992 138.167 67.0423 138.167 67.2853Z" fill="white"/>
<path d="M160.997 77.1543H154.024C153.904 77.5015 153.774 77.8834 153.634 78.3001C153.496 78.6993 153.357 79.0986 153.217 79.4979C153.097 79.8798 152.975 80.2444 152.853 80.5915C152.733 80.9214 152.637 81.199 152.567 81.4248C152.325 81.5289 152.038 81.581 151.708 81.581C151.432 81.581 151.18 81.5115 150.954 81.3727C150.746 81.2164 150.642 80.9735 150.642 80.6436C150.642 80.4873 150.668 80.3311 150.72 80.1749C150.772 80.0012 150.833 79.819 150.902 79.6281C151.162 78.899 151.492 77.9615 151.89 76.8158C152.307 75.6701 152.749 74.4549 153.217 73.1703C153.704 71.8684 154.19 70.5664 154.674 69.2644C155.179 67.9451 155.637 66.7647 156.053 65.7231C156.193 65.6536 156.401 65.5843 156.678 65.5148C156.956 65.4453 157.242 65.4106 157.537 65.4106C157.885 65.4106 158.213 65.4627 158.525 65.5669C158.855 65.671 159.064 65.8447 159.15 66.0877C159.566 67.0946 160.008 68.2489 160.477 69.5509C160.963 70.8354 161.449 72.1548 161.934 73.5088C162.42 74.8629 162.88 76.1995 163.313 77.5189C163.765 78.8208 164.163 80.0012 164.51 81.0602C164.371 81.2164 164.207 81.338 164.015 81.4248C163.825 81.5289 163.609 81.581 163.365 81.581C163.036 81.581 162.784 81.5115 162.61 81.3727C162.438 81.2164 162.29 80.9647 162.168 80.6175L160.997 77.1543ZM157.511 67.1813C157.32 67.7021 157.104 68.301 156.86 68.978C156.618 69.6376 156.366 70.3321 156.106 71.0612C155.845 71.7903 155.585 72.528 155.325 73.2745C155.065 74.021 154.822 74.7327 154.596 75.4097H160.451C160.19 74.6285 159.922 73.8473 159.644 73.0662C159.368 72.2676 159.098 71.5038 158.837 70.7747C158.595 70.0456 158.361 69.3772 158.135 68.7697C157.927 68.1448 157.754 67.6153 157.615 67.1813H157.511Z" fill="white"/>
<path fill-rule="evenodd" clip-rule="evenodd" d="M174 48.8235H0V45.5686H174V48.8235Z" fill="white"/>
</g>
<defs>
<clipPath id="clip0_2155_453">
<rect width="174" height="83" fill="white"/>
</clipPath>
</defs>
</svg>
